<svg xmlns="http://www.w3.org/2000/svg"  viewBox="0 0 64 64"><circle cx="32" cy="32" r="27" fill="#ed7899"/><path fill="#f7a1c8" d="M32,59C17.112,59,5,46.888,5,32S17.112,5,32,5s27,12.112,27,27S46.888,59,32,59z M32,10 c-12.131,0-22,9.869-22,22s9.869,22,22,22s22-9.869,22-22S44.131,10,32,10z"/><path fill="#8d6c9f" d="M32,60C16.561,60,4,47.439,4,32S16.561,4,32,4s28,12.561,28,28S47.439,60,32,60z M32,6 C17.663,6,6,17.664,6,32s11.663,26,26,26s26-11.664,26-26S46.337,6,32,6z"/><path fill="#8d6c9f" d="M42.109,52.519c-0.364,0-0.716-0.2-0.893-0.546l-0.907-1.783c-0.25-0.492-0.054-1.094,0.438-1.345 c0.489-0.252,1.094-0.054,1.345,0.438L43,51.065c0.25,0.492,0.054,1.094-0.438,1.345C42.417,52.484,42.262,52.519,42.109,52.519z"/><path fill="#8d6c9f" d="M37.216,54.325c-0.451,0-0.86-0.308-0.971-0.766l-0.469-1.944c-0.13-0.537,0.2-1.077,0.737-1.207 c0.537-0.13,1.077,0.201,1.206,0.738l0.469,1.944c0.13,0.537-0.2,1.077-0.737,1.207C37.372,54.316,37.294,54.325,37.216,54.325z"/><path fill="#8d6c9f" d="M32.043,54.954c-0.55,0-0.997-0.444-1-0.995l-0.011-2c-0.003-0.552,0.442-1.002,0.995-1.005 c0.001,0,0.003,0,0.005,0c0.55,0,0.997,0.444,1,0.995l0.011,2c0.003,0.552-0.442,1.002-0.995,1.005 C32.047,54.954,32.045,54.954,32.043,54.954z"/><path fill="#8d6c9f" d="M26.864,54.381c-0.074,0-0.149-0.008-0.225-0.025c-0.539-0.124-0.875-0.661-0.751-1.199l0.448-1.949 c0.124-0.538,0.662-0.871,1.198-0.75c0.539,0.124,0.875,0.661,0.751,1.199l-0.448,1.949C27.731,54.068,27.319,54.381,26.864,54.381 z"/><path fill="#8d6c9f" d="M21.951,52.629c-0.148,0-0.3-0.033-0.442-0.104c-0.495-0.245-0.698-0.845-0.453-1.34l0.888-1.792 c0.245-0.494,0.843-0.699,1.34-0.452c0.495,0.245,0.698,0.845,0.453,1.34l-0.888,1.792C22.674,52.425,22.319,52.629,21.951,52.629z"/><path fill="#8d6c9f" d="M42.993,13.94c-0.17,0-0.342-0.043-0.499-0.134c-0.594-0.343-1.207-0.659-1.825-0.938 c-0.503-0.228-0.726-0.82-0.498-1.323c0.229-0.503,0.816-0.727,1.324-0.498c0.677,0.307,1.35,0.652,1.999,1.028 c0.479,0.276,0.643,0.888,0.366,1.366C43.675,13.761,43.339,13.94,42.993,13.94z"/><path fill="#8d6c9f" d="M21.044,13.918c-0.346,0-0.683-0.18-0.868-0.501c-0.275-0.479-0.11-1.09,0.368-1.366 c5.009-2.884,11.142-3.763,16.746-2.44c0.537,0.126,0.87,0.665,0.744,1.203c-0.127,0.538-0.667,0.871-1.203,0.744 c-5.111-1.203-10.717-0.405-15.289,2.227C21.385,13.875,21.213,13.918,21.044,13.918z"/><path fill="#fff8ee" d="M22.6,32.577c-0.012,0.972-0.149,1.973-0.593,2.9c-0.678,1.416-1.791,2.205-3.268,2.44 c-0.891,0.142-1.779,0.113-2.643-0.177c-1.414-0.475-2.299-1.51-2.768-2.964c-0.305-0.945-0.376-1.92-0.301-2.909 c0.074-0.969,0.299-1.892,0.79-2.724c0.707-1.198,1.749-1.865,3.063-2.065c0.9-0.137,1.798-0.107,2.666,0.209 c1.495,0.544,2.4,1.666,2.81,3.252C22.525,31.188,22.594,31.852,22.6,32.577z M19.826,32.446c-0.007-0.152-0.012-0.386-0.031-0.619 c-0.045-0.553-0.14-1.093-0.379-1.595c-0.242-0.506-0.623-0.828-1.154-0.925c-0.23-0.042-0.471-0.055-0.704-0.037 c-0.601,0.047-1.074,0.335-1.346,0.914c-0.125,0.266-0.225,0.551-0.291,0.839c-0.181,0.791-0.177,1.596-0.102,2.401 c0.045,0.486,0.148,0.959,0.359,1.4c0.199,0.415,0.491,0.724,0.916,0.869c0.475,0.162,0.956,0.159,1.429-0.012 c0.549-0.198,0.845-0.644,1.031-1.19C19.771,33.855,19.816,33.194,19.826,32.446z"/><path fill="#8d6c9f" d="M17.859,27c0.57,0,1.135,0.085,1.687,0.286c1.495,0.544,2.4,1.666,2.81,3.252 c0.168,0.65,0.237,1.313,0.243,2.038c-0.012,0.972-0.149,1.973-0.593,2.9c-0.678,1.416-1.791,2.205-3.268,2.44 C18.403,37.971,18.066,38,17.732,38c-0.551,0-1.098-0.079-1.635-0.26c-1.414-0.475-2.299-1.51-2.768-2.964 c-0.305-0.945-0.376-1.92-0.301-2.909c0.074-0.969,0.299-1.892,0.79-2.724c0.707-1.198,1.749-1.865,3.063-2.065 C17.208,27.028,17.535,27,17.859,27 M17.794,35.811c0.244,0,0.488-0.043,0.73-0.131c0.549-0.198,0.845-0.644,1.031-1.19 c0.217-0.634,0.261-1.296,0.271-2.044c-0.007-0.152-0.012-0.386-0.031-0.619c-0.045-0.553-0.14-1.093-0.379-1.595 c-0.242-0.506-0.623-0.828-1.154-0.925c-0.162-0.03-0.329-0.045-0.495-0.045c-0.07,0-0.14,0.003-0.209,0.008 c-0.601,0.047-1.074,0.335-1.346,0.914c-0.125,0.266-0.225,0.551-0.291,0.839c-0.181,0.791-0.177,1.596-0.102,2.401 c0.045,0.486,0.148,0.959,0.359,1.4c0.199,0.415,0.491,0.724,0.916,0.869C17.327,35.771,17.561,35.811,17.794,35.811 M17.859,25 c-0.412,0-0.842,0.034-1.278,0.1c-1.94,0.295-3.491,1.341-4.486,3.026c-0.61,1.033-0.957,2.207-1.062,3.589 c-0.102,1.341,0.026,2.543,0.391,3.675c0.684,2.121,2.08,3.59,4.035,4.246C16.179,39.878,16.943,40,17.732,40 c0.429,0,0.873-0.036,1.322-0.108c2.164-0.345,3.809-1.573,4.757-3.552c0.513-1.072,0.772-2.295,0.789-3.739 c-0.007-0.969-0.107-1.794-0.306-2.564c-0.589-2.276-1.994-3.878-4.063-4.631C19.489,25.137,18.691,25,17.859,25L17.859,25z"/><path fill="#fff8ee" d="M40.37,27.125c0.878-0.167,1.745-0.164,2.627-0.001c0,0.054,0,0.105,0,0.156 c0,3.305-0.001,6.61,0.003,9.914c0,0.117-0.033,0.161-0.131,0.195c-1.369,0.462-2.765,0.692-4.199,0.586 c-0.618-0.046-1.235-0.107-1.824-0.345c-1.113-0.449-1.741-1.368-2.054-2.587c-0.184-0.717-0.228-1.455-0.23-2.196 c-0.003-1.863-0.001-3.727-0.001-5.59c0-0.042,0.004-0.084,0.006-0.133c0.881-0.165,1.756-0.165,2.643,0.002 c0,0.068,0,0.129,0,0.19c0.001,1.93-0.005,3.86,0.01,5.789c0.003,0.389,0.062,0.785,0.146,1.163 c0.169,0.765,0.636,1.192,1.342,1.293c0.507,0.073,1.012,0.043,1.515-0.064c0.114-0.024,0.15-0.07,0.15-0.203 c-0.004-2.66-0.003-5.32-0.003-7.98C40.37,27.253,40.37,27.192,40.37,27.125z"/><path fill="#8d6c9f" d="M35.884,27c0.44,0,0.882,0.042,1.326,0.125c0,0.068,0,0.129,0,0.19 c0.001,1.93-0.005,3.86,0.01,5.789c0.003,0.389,0.062,0.785,0.146,1.163c0.169,0.765,0.636,1.192,1.342,1.293 c0.188,0.027,0.377,0.04,0.565,0.04c0.318,0,0.634-0.037,0.95-0.104c0.114-0.024,0.15-0.07,0.15-0.203 c-0.004-2.66-0.003-5.32-0.003-7.98c0-0.061,0-0.122,0-0.189C40.807,27.041,41.242,27,41.677,27c0.438,0,0.877,0.042,1.32,0.124 c0,0.054,0,0.105,0,0.156c0,3.305-0.001,6.61,0.003,9.914c0,0.117-0.033,0.161-0.131,0.195C41.721,37.776,40.555,38,39.364,38 c-0.23,0-0.461-0.008-0.693-0.026c-0.618-0.046-1.235-0.107-1.824-0.345c-1.113-0.449-1.741-1.368-2.054-2.587 c-0.184-0.717-0.228-1.455-0.23-2.196c-0.003-1.863-0.001-3.727-0.001-5.59c0-0.042,0.004-0.084,0.006-0.133 C35.007,27.041,35.445,27,35.884,27 M35.884,25c-0.558,0-1.125,0.053-1.684,0.157c-0.913,0.171-1.588,0.947-1.631,1.875 c-0.005,0.094-0.008,0.159-0.008,0.224l0,1.42c-0.001,1.391-0.001,2.783,0.001,4.174c0.001,0.727,0.036,1.691,0.293,2.691 c0.625,2.43,2.108,3.486,3.243,3.943c0.855,0.345,1.667,0.429,2.425,0.485C38.804,39.99,39.084,40,39.364,40 c1.341,0,2.736-0.241,4.144-0.716c0.921-0.311,1.493-1.112,1.492-2.092c-0.003-2.838-0.003-5.676-0.003-8.513l0-1.399v-0.156 c0-0.964-0.687-1.791-1.635-1.966C42.799,25.053,42.232,25,41.677,25c-0.559,0-1.125,0.054-1.682,0.16 c-0.493,0.094-0.916,0.365-1.206,0.739c-0.291-0.375-0.715-0.646-1.211-0.739C37.016,25.054,36.446,25,35.884,25L35.884,25z"/><path fill="#fff8ee" d="M31.325,29.625c-0.436-0.131-0.853-0.281-1.28-0.38c-0.537-0.125-1.084-0.156-1.625-0.015 c-0.284,0.074-0.54,0.203-0.649,0.522c-0.145,0.422-0.005,0.848,0.387,1.023c0.427,0.19,0.877,0.326,1.317,0.485 c0.386,0.14,0.78,0.257,1.155,0.425c0.995,0.446,1.489,1.27,1.562,2.394c0.061,0.945-0.153,1.795-0.767,2.508 c-0.531,0.617-1.208,0.974-1.957,1.195c-0.816,0.241-1.65,0.246-2.487,0.185c-0.722-0.053-1.419-0.235-2.098-0.495 c-0.075-0.029-0.102-0.064-0.093-0.151c0.072-0.695,0.248-1.36,0.517-1.998c0.009-0.021,0.02-0.041,0.037-0.077 c0.05,0.019,0.099,0.035,0.147,0.055c0.776,0.309,1.572,0.502,2.407,0.461c0.384-0.019,0.76-0.081,1.104-0.279 c0.461-0.265,0.633-0.657,0.512-1.155c-0.046-0.191-0.136-0.357-0.303-0.442c-0.275-0.139-0.555-0.273-0.843-0.375 c-0.521-0.184-1.055-0.331-1.575-0.516c-0.385-0.137-0.729-0.362-1.043-0.639c-0.438-0.387-0.645-0.898-0.717-1.478 c-0.082-0.656-0.049-1.303,0.207-1.918c0.343-0.824,0.966-1.325,1.742-1.637c0.679-0.273,1.389-0.335,2.11-0.322 c0.919,0.017,1.806,0.21,2.673,0.524c0.057,0.021,0.116,0.03,0.104,0.128c-0.077,0.68-0.242,1.333-0.529,1.949 C31.333,29.615,31.324,29.626,31.325,29.625z"/><path fill="#8d6c9f" d="M28.915,27c0.058,0,0.117,0.001,0.175,0.002c0.919,0.017,1.806,0.21,2.673,0.524 c0.057,0.021,0.116,0.03,0.104,0.128c-0.077,0.68-0.242,1.333-0.529,1.949c-0.006,0.012-0.014,0.023-0.014,0.023c0,0,0,0,0,0 c-0.436-0.131-0.853-0.281-1.28-0.38c-0.292-0.068-0.587-0.108-0.882-0.108c-0.248,0-0.496,0.028-0.743,0.093 c-0.284,0.074-0.54,0.203-0.649,0.522c-0.145,0.422-0.005,0.848,0.387,1.023c0.427,0.19,0.877,0.326,1.317,0.485 c0.386,0.14,0.78,0.257,1.155,0.425c0.995,0.446,1.489,1.27,1.562,2.394c0.061,0.945-0.153,1.795-0.767,2.508 c-0.531,0.617-1.208,0.974-1.957,1.195C28.916,37.945,28.358,38,27.797,38c-0.272,0-0.545-0.013-0.818-0.033 c-0.722-0.053-1.419-0.235-2.098-0.495c-0.075-0.029-0.102-0.064-0.093-0.152c0.072-0.695,0.248-1.36,0.517-1.998 c0.009-0.021,0.02-0.041,0.037-0.077c0.05,0.019,0.099,0.035,0.147,0.055c0.706,0.281,1.43,0.467,2.184,0.467 c0.074,0,0.148-0.002,0.223-0.005c0.384-0.019,0.76-0.081,1.104-0.279c0.461-0.265,0.633-0.657,0.512-1.155 c-0.046-0.191-0.136-0.357-0.303-0.442c-0.275-0.139-0.555-0.273-0.843-0.375c-0.521-0.184-1.055-0.331-1.575-0.516 c-0.385-0.137-0.729-0.362-1.043-0.639c-0.438-0.387-0.645-0.898-0.717-1.478c-0.082-0.656-0.049-1.303,0.207-1.918 c0.343-0.824,0.966-1.325,1.742-1.637C27.605,27.073,28.255,27,28.915,27 M28.915,25c-1.033,0-1.885,0.149-2.679,0.467 c-1.361,0.546-2.318,1.463-2.843,2.724c-0.368,0.884-0.481,1.843-0.346,2.934c0.125,1.006,0.507,1.845,1.137,2.5 c-0.267,0.186-0.49,0.438-0.64,0.745c-0.038,0.076-0.061,0.125-0.082,0.175c-0.35,0.83-0.574,1.695-0.664,2.57 c-0.101,0.978,0.448,1.871,1.366,2.224c0.924,0.355,1.797,0.559,2.668,0.623C27.184,39.987,27.499,40,27.797,40 c0.821,0,1.553-0.098,2.235-0.3c1.216-0.359,2.167-0.95,2.905-1.808c0.928-1.077,1.348-2.403,1.248-3.943 c-0.081-1.249-0.528-2.304-1.292-3.09c0.101-0.125,0.188-0.264,0.258-0.414c0.361-0.776,0.597-1.639,0.703-2.567 c0.115-1.008-0.459-1.909-1.427-2.241c-1.123-0.407-2.208-0.617-3.301-0.637L28.915,25L28.915,25z"/><rect width="2.4" height="9.13" x="46.6" y="24" fill="#fff8ee"/><path fill="#8d6c9f" d="M49,24v9.13h-2.4V24H49 M49,22h-2.4c-1.105,0-2,0.895-2,2v9.13c0,1.105,0.895,2,2,2H49 c1.105,0,2-0.895,2-2V24C51,22.895,50.105,22,49,22L49,22z"/><rect width="2.4" height="2.4" x="46.6" y="35.53" fill="#fff8ee"/><path fill="#8d6c9f" d="M49,35.53v2.4h-2.4v-2.4H49 M49,33.53h-2.4c-1.105,0-2,0.895-2,2v2.4c0,1.105,0.895,2,2,2H49 c1.105,0,2-0.895,2-2v-2.4C51,34.426,50.105,33.53,49,33.53L49,33.53z"/></svg>
